<?xml version="1.0" encoding="UTF-8"?>
<svg width="23px" height="23px" viewBox="0 0 23 23" version="1.1" xmlns="http://www.w3.org/2000/svg" xmlns:xlink="http://www.w3.org/1999/xlink">
    <title>TestDot</title>
    <g id="UI-Design" stroke="none" stroke-width="1" fill="none" fill-rule="evenodd">
        <g id="M-Category-Page---Custom-Bumper-Sticker-Final" transform="translate(-58.000000, -1180.000000)">
            <g id="Group" transform="translate(57.000000, 1182.544950)">
                <g id="Group-3" transform="translate(11.785714, 11.000000) rotate(27.000000) translate(-11.785714, -11.000000) ">
                    <path d="M9.35124993e-14,2.46675 L7.42735714,-2.79141789e-14 C7.42735714,-2.79141789e-14 12.4638643,2.2011 14.0306571,2.77035 C16.6275214,3.72452143 22.65615,6.5274 22.65615,6.5274 L13.1144357,20.2544571 L5.16662143,21.0514071 L9.35124993e-14,2.46675 Z" id="Path" fill="#1D1D1B"></path>
                    <path d="M8.99600656,2.22209821 C12.5795708,3.84852679 16.9119239,6.01132383 20.1268311,7.50763811 C18.3757096,10.6032738 15.0912787,14.2062232 12.8142787,17.3398089 C12.0444359,14.2712803 10.0152351,7.35619107 8.99600656,2.22209821 Z" id="Path" fill="#FFDD39"></path>
                    <path d="M1.91843959,3.57945033 C3.90810388,2.83671462 5.71251669,2.30786415 7.40942383,1.93378557 C9.25813097,9.88159986 10.113675,13.2671166 11.328075,18.5421666 C11.1220607,18.6018023 8.69330706,12.8760463 8.69330706,12.8760463 C8.69330706,12.8760463 9.5522889,18.4979143 9.57397461,18.8340429 C9.34627461,18.3569571 6.6232573,11 6.6232573,11 L7.92121233,19.1701714 L4.27308873,9.29832241 C4.27308873,9.29832241 6.48904579,19.4358214 6.38603864,19.4900357 C4.5752815,13.6836857 2.96477531,6.91905033 1.91843959,3.57945033 Z" id="Path" fill="#EEB500"></path>
                </g>
            </g>
        </g>
    </g>
</svg>